<svg width="957" height="167" viewBox="0 0 957 167" fill="none" xmlns="http://www.w3.org/2000/svg">
<g filter="url(#filter0_i_2_4628)">
<path d="M956 98.5212C956 97.7695 954.778 97.1682 953.251 97.1306C937.786 96.7548 929.693 93.1658 921.145 89.3888C911.678 85.2173 901.943 80.8954 882.473 80.8954C863.004 80.8954 853.231 85.2173 843.797 89.3888C834.753 93.3913 826.24 97.1682 808.908 97.1682C792.493 97.1682 783.518 85.2173 774.817 73.6797C765.426 61.2214 755.729 48.3497 735.382 48.3497C714.881 48.3497 709 71.2612 678 73.04C647 74.8187 632 55.6971 622 32.1285C609.517 2.70801 597.21 1.02861 583.5 1.00022C569.79 0.971829 558.627 9.02051 549.16 15.9543C540.146 22.5687 531.637 28.826 514.763 28.826C494.946 28.826 485.177 35.2525 475.748 41.4722C466.7 47.3914 458.187 52.991 441.237 52.991C421.271 52.991 411.536 60.5261 402.064 67.817C393.059 74.7884 384.507 81.3651 367.672 81.3651C350.836 81.3651 342.323 74.9011 333.275 68.0425C323.846 60.8832 314.073 53.4608 294.145 53.4608C273.339 53.4608 264.635 80.0686 254.557 110.886C246.54 135.426 236.576 165.98 220.618 165.98C204.661 165.98 194.659 133.754 186.642 107.879C176.563 75.4272 167.859 47.4101 147.053 47.4101C126.706 47.4101 117.009 60.5261 107.656 73.2099C98.9518 84.9918 89.9423 97.1682 73.5267 97.1682C56.6912 97.1682 48.1779 90.7042 39.1303 83.8455C29.7008 76.6862 19.9278 69.2639 0 69.2639" stroke="white" stroke-width="1.5"/>
</g>
<defs>
<filter id="filter0_i_2_4628" x="0" y="-0.749863" width="956.75" height="167.48" filterUnits="userSpaceOnUse" color-interpolation-filters="sRGB">
<feFlood flood-opacity="0" result="BackgroundImageFix"/>
<feBlend mode="normal" in="SourceGraphic" in2="BackgroundImageFix" result="shape"/>
<feColorMatrix in="SourceAlpha" type="matrix" values="0 0 0 0 0 0 0 0 0 0 0 0 0 0 0 0 0 0 127 0" result="hardAlpha"/>
<feOffset dy="-1"/>
<feGaussianBlur stdDeviation="5.5"/>
<feComposite in2="hardAlpha" operator="arithmetic" k2="-1" k3="1"/>
<feColorMatrix type="matrix" values="0 0 0 0 0.196078 0 0 0 0 0.196078 0 0 0 0 0.364706 0 0 0 0.01 0"/>
<feBlend mode="normal" in2="shape" result="effect1_innerShadow_2_4628"/>
</filter>
</defs>
</svg>
